<svg width="80" height="50" viewBox="0 0 184 124" fill="none" xmlns="http://www.w3.org/2000/svg">
<path d="M145.845 0C153.335 0 160.016 5.41398 160.016 12.6864C160.016 19.9848 153.335 25.3728 145.845 25.3728C138.355 25.3728 131.675 19.9848 131.675 12.6864C131.675 5.41398 138.355 0 145.845 0ZM92.0384 0C99.488 0 106.209 5.41398 106.209 12.6864C106.209 19.9848 99.488 25.3728 92.0384 25.3728C84.5484 25.3728 77.8276 19.9848 77.8276 12.6864C77.8276 5.41398 84.5484 0 92.0384 0ZM38.191 0C45.6811 0 52.3614 5.41398 52.3614 12.6864C52.3614 19.9848 45.6811 25.3728 38.191 25.3728C30.701 25.3728 23.9842 19.9848 23.9842 12.6864C23.9842 5.41398 30.701 0 38.191 0ZM92.0384 31.4235C117.95 31.9998 139.813 31.9998 166.048 32.6337C178.559 37.7624 184.348 64.04 183.984 73.1737L176.858 78.2736C173.741 65.9416 169.813 49.4894 163.295 45.8301V71.0704L164.955 124H155.967L149.206 70.7822H141.918L135.157 124H126.128L127.829 71.0704L124.59 45.5708H112.727L109.812 70.9839L111.513 123.914H102.484L95.6822 70.6958H88.3946L81.5928 123.914H72.6048L74.3052 70.9839L71.3497 45.5708H59.4871L56.2481 71.0704L57.9486 124H48.92L42.1587 70.7822H34.8711L28.0329 124H19.0448L20.7453 71.0704V45.8301C14.1864 49.4894 10.2592 65.9416 7.14173 78.2736L0.0160643 73.1737C-0.348316 64.04 5.48178 37.7624 17.9517 32.6337C44.264 31.9998 66.1269 31.9998 92.0384 31.4235Z" fill="black"/>
</svg>
