<svg width="815" height="218" viewBox="0 0 815 218" fill="none" xmlns="http://www.w3.org/2000/svg">
<path d="M399.845 82C407.335 82 414.016 87.414 414.016 94.6864C414.016 101.985 407.335 107.373 399.845 107.373C392.355 107.373 385.675 101.985 385.675 94.6864C385.675 87.414 392.355 82 399.845 82ZM346.038 82C353.488 82 360.209 87.414 360.209 94.6864C360.209 101.985 353.488 107.373 346.038 107.373C338.548 107.373 331.828 101.985 331.828 94.6864C331.828 87.414 338.548 82 346.038 82ZM292.191 82C299.681 82 306.361 87.414 306.361 94.6864C306.361 101.985 299.681 107.373 292.191 107.373C284.701 107.373 277.984 101.985 277.984 94.6864C277.984 87.414 284.701 82 292.191 82ZM346.038 113.424C371.95 114 393.813 114 420.048 114.634C432.559 119.762 438.348 146.04 437.984 155.174L430.858 160.274C427.741 147.942 423.813 131.489 417.295 127.83V153.07L418.955 206H409.967L403.206 152.782H395.918L389.157 206H380.128L381.829 153.07L378.59 127.571H366.727L363.812 152.984L365.513 205.914H356.484L349.682 152.696H342.395L335.593 205.914H326.605L328.305 152.984L325.35 127.571H313.487L310.248 153.07L311.949 206H302.92L296.159 152.782H288.871L282.033 206H273.045L274.745 153.07V127.83C268.186 131.489 264.259 147.942 261.142 160.274L254.016 155.174C253.652 146.04 259.482 119.762 271.952 114.634C298.264 114 320.127 114 346.038 113.424Z" fill="#FC5404"/>
<path d="M54.8 191.6C52.6667 191.333 50.6667 191.2 48.8 191.2C47.0667 191.067 45.8667 191 45.2 191C44.6667 190.867 44.4 190.6 44.4 190.2C43.4667 185.933 42.8 182.2 42.4 179C42 175.667 41.7333 172.6 41.6 169.8C41.4667 165.8 41.1333 161.867 40.6 158C40.2 154 39.2667 148.733 37.8 142.2C30.3333 143.4 25.3333 144 22.8 144C20.1333 144 18.1333 143.533 16.8 142.6C15.4667 141.533 14.8 139.867 14.8 137.6C14.8 136.267 15.5333 135.6 17 135.6L23 135C23.9333 134.867 28.2 134.333 35.8 133.4C35.5333 129.533 35 121.6 34.2 109.6C33.8 100 33.2 92.3333 32.4 86.6L7.4 88.8C5.53333 90 4.06667 90.6 3 90.6C1.4 89.4 0.4 87.8667 -2.83122e-07 86C3.2 82.5333 10.8667 79.6667 23 77.4C35.2667 75.1333 48.5333 74 62.8 74C80.6667 74 96 75.9333 108.8 79.8C121.6 83.5333 128.533 89.3333 129.6 97.2C125.467 97.2 121.467 96.7333 117.6 95.8C113.733 94.8667 108.867 93.4667 103 91.6C95.5333 89.0667 88.6667 87.1333 82.4 85.8C76.2667 84.4667 69.3333 83.8 61.6 83.8C56.6667 83.8 51.2667 84.2 45.4 85C45.4 97.4 45.7333 113.067 46.4 132L53.4 131.4C74.7333 129.667 87.2 128.8 90.8 128.8C92.5333 128.8 93.7333 128.933 94.4 129.2C95.0667 129.333 95.6 129.6 96 130C96.1333 134 92.3333 136.867 84.6 138.6C76.8667 140.2 64.6 141.333 47.8 142C48.4667 148.533 49.7333 157.067 51.6 167.6C53.3333 177.467 54.4 185.467 54.8 191.6ZM242.488 200.8C241.554 201.867 240.221 202.4 238.488 202.4C232.221 202.4 222.221 196.667 208.488 185.2C194.888 173.6 182.821 162.067 172.288 150.6C172.954 154.2 174.221 160.267 176.088 168.8C176.888 172.133 177.554 175.333 178.088 178.4C178.754 181.467 179.088 183.867 179.088 185.6C179.088 189.467 177.688 191.8 174.888 192.6C174.221 194.333 172.421 190 169.488 179.6C166.688 169.2 164.021 157.2 161.488 143.6C159.088 129.867 157.888 118.4 157.888 109.2C157.888 104.533 158.288 100.733 159.088 97.8C160.821 96.4667 162.288 95.8 163.488 95.8C165.888 95.8 167.554 97.8667 168.488 102C169.421 106 170.288 112.333 171.088 121L171.488 125.6C176.688 125.333 183.754 124.2 192.688 122.2C201.754 120.2 209.821 117.467 216.888 114C224.088 110.4 227.688 106.133 227.688 101.2C227.688 98.5333 225.754 95.6 221.888 92.4C218.154 89.0667 212.354 86.2667 204.488 84C196.754 81.7333 187.221 80.6 175.888 80.6H169.488C161.888 80.6 155.954 81.8667 151.688 84.4C147.421 86.8 145.288 92 145.288 100C143.288 100 141.488 98.7333 139.888 96.2C138.288 93.6667 137.488 91.3333 137.488 89.2C137.488 80.9333 141.421 75.5333 149.288 73C157.288 70.4667 168.754 69.2 183.688 69.2C191.554 69.2 199.754 70.4667 208.288 73C216.821 75.5333 224.021 79.5333 229.888 85C235.754 90.3333 238.688 97 238.688 105C238.688 110.467 236.221 115 231.288 118.6C226.488 122.2 220.821 125 214.288 127C207.754 129 199.754 131.067 190.288 133.2C182.421 134.933 177.288 136.2 174.888 137C185.154 150.867 195.021 161.667 204.488 169.4C214.088 177.133 224.088 184.133 234.488 190.4C238.088 192.533 240.621 194.133 242.088 195.2C243.554 196.267 244.288 197.267 244.288 198.2C244.288 199.133 243.688 200 242.488 200.8Z" fill="#FC5404"/>
<path d="M489.6 206.2C478.533 206.2 470.467 204.133 465.4 200C460.467 195.867 458 188.4 458 177.6L460.8 132.8V89.8C460.8 86.4667 461.467 84.3333 462.8 83.4C464.133 82.3333 467.067 81.8 471.6 81.8L485.2 82.2C502.267 83.1333 518.933 83.6 535.2 83.6C538.667 83.6 541.4 84.6 543.4 86.6C545.533 88.6 546.6 91.3333 546.6 94.8C546.6 95.4667 546.4 96 546 96.4C545.6 96.8 545.133 96.9333 544.6 96.8L535.2 93.2L472.6 94.8C471.8 94.8 471.333 94.7333 471.2 94.6C471.733 95.6667 472 96.6 472 97.4V132.8C478.133 133.2 484.067 133.4 489.8 133.4C499.667 133.4 510.533 132.933 522.4 132C523.6 131.867 525.4 131.733 527.8 131.6C530.333 131.333 531.733 131.333 532 131.6C532.8 132.4 533.4 133.133 533.8 133.8C534.2 134.467 534.467 135.4 534.6 136.6C535 139.533 530.533 141.467 521.2 142.4C512 143.333 499.667 144.067 484.2 144.6C479 144.6 474.667 144.733 471.2 145C469.6 149 468.8 155.4 468.8 164.2L469 176V189C471.133 190.733 473.467 191.867 476 192.4C478.533 192.933 482.667 193.2 488.4 193.2C494.4 193.2 500.267 192.867 506 192.2C511.867 191.533 515.333 191.133 516.4 191C527.6 189.667 535.933 189 541.4 189C544.6 189 546.8 189.333 548 190C549.333 190.533 550 191.533 550 193C550 201.8 532.133 206.2 496.4 206.2H489.6ZM655.689 106.4C659.556 106.4 663.556 110.2 667.689 117.8C671.822 125.4 675.289 134.133 678.089 144C680.889 153.733 682.289 161 682.289 165.8C682.289 173.133 680.689 179.733 677.489 185.6C674.422 191.333 670.022 195.867 664.289 199.2C658.556 202.4 652.022 204 644.689 204C634.556 204 625.756 201.267 618.289 195.8C610.956 190.333 605.089 184.067 600.689 177C596.289 169.8 591.756 161.2 587.089 151.2L584.289 145.2L584.689 193.6C584.689 196.533 584.156 199.4 583.089 202.2C582.156 204.867 580.489 206.2 578.089 206.2C575.689 206.2 573.956 204.867 572.889 202.2C571.822 199.4 571.289 196.667 571.289 194C571.289 185.467 571.956 173.2 573.289 157.2C574.622 141.2 575.289 129.267 575.289 121.4C575.289 119.533 575.156 117.6 574.889 115.6C574.622 113.6 574.422 112.2 574.289 111.4C573.622 107.8 573.289 104.6 573.289 101.8V101C573.689 101 574.889 100.733 576.889 100.2C579.022 99.5333 580.289 99.2 580.689 99.2H582.689C587.756 122 595.222 143.067 605.089 162.4C615.089 181.6 628.756 191.2 646.089 191.2C654.222 191.2 660.356 188.8 664.489 184C668.756 179.067 670.889 172.467 670.889 164.2C670.889 157.133 669.756 150.667 667.489 144.8C665.222 138.8 661.822 131.467 657.289 122.8L651.889 112.2C651.489 111.533 651.289 110.867 651.289 110.2C651.289 109.133 651.689 108.267 652.489 107.6C653.289 106.8 654.356 106.4 655.689 106.4ZM584.689 193.6V193.2V193.6ZM764.05 206.2C760.317 206.2 757.717 204.267 756.25 200.4C754.783 196.533 753.583 191.333 752.65 184.8L752.05 179.8C750.05 169.133 748.45 158.533 747.25 148C746.05 137.333 744.85 124.467 743.65 109.4L742.45 94.6C734.45 94.7333 723.05 94.4 708.25 93.6L704.25 93.4C702.383 93.2667 701.05 92.4 700.25 90.8C699.583 89.0667 699.25 86.7333 699.25 83.8H713.05C736.25 83.8 757.183 84.6667 775.85 86.4C794.517 88.1333 803.85 91.6667 803.85 97C803.85 98.4667 803.583 99.4667 803.05 100C802.65 100.533 801.717 100.8 800.25 100.8C794.917 100.4 786.65 99.2667 775.45 97.4C772.917 97 769.85 96.5333 766.25 96C762.65 95.4667 758.583 94.9333 754.05 94.4C754.05 113.733 756.917 143.467 762.65 183.6C762.917 185.6 763.85 188.467 765.45 192.2C766.117 193.8 766.717 195.533 767.25 197.4C767.917 199.133 768.25 200.733 768.25 202.2C768.25 204.067 767.983 205.2 767.45 205.6C766.917 206 766.25 206.2 765.45 206.2C764.783 206.2 764.317 206.2 764.05 206.2Z" fill="#FC5404"/>
</svg>
